<?xml version="1.0" encoding="iso-8859-1"?>
<!-- Generator: Adobe Illustrator 19.0.0, SVG Export Plug-In . SVG Version: 6.00 Build 0)  -->
<svg version="1.1" id="Layer_1" xmlns="http://www.w3.org/2000/svg" xmlns:xlink="http://www.w3.org/1999/xlink" x="0px" y="0px"
	 viewBox="0 0 512 512" style="enable-background:new 0 0 512 512;" xml:space="preserve">
<g>
	<g>
		<path d="M501.801,105.784h-0.213c0.128-0.278,0.213-0.45,0.213-0.45H10.199c0,0,0.162,0.171,0.41,0.45h-0.41
			C4.566,105.784,0,110.35,0,115.983v280.484c0,5.633,4.566,10.199,10.199,10.199h491.602c5.632,0,10.199-4.566,10.199-10.199
			V115.983C512,110.35,507.433,105.784,501.801,105.784z M469.544,126.182L256,279.867L42.456,126.182H469.544z M20.398,135.44
			l155.562,111.957L20.398,374.916V135.44z M491.602,374.915l-113.979-93.433c-4.356-3.571-10.784-2.935-14.353,1.423
			c-3.572,4.356-2.934,10.783,1.422,14.353l108.584,89.009H38.725l154.369-126.542l56.947,40.984c1.78,1.28,3.869,1.921,5.957,1.921
			s4.179-0.641,5.958-1.921L491.602,135.44V374.915z"/>
	</g>
</g>
<g>
	<g>
		<path d="M355.279,263.411l-4.08-3.344c-4.359-3.572-10.783-2.934-14.353,1.423c-3.572,4.356-2.934,10.783,1.422,14.353l4.08,3.344
			c1.897,1.554,4.186,2.312,6.46,2.312c2.951,0,5.878-1.275,7.893-3.734C360.272,273.409,359.634,266.982,355.279,263.411z"/>
	</g>
</g>
<g>
</g>
<g>
</g>
<g>
</g>
<g>
</g>
<g>
</g>
<g>
</g>
<g>
</g>
<g>
</g>
<g>
</g>
<g>
</g>
<g>
</g>
<g>
</g>
<g>
</g>
<g>
</g>
<g>
</g>
</svg>
